<?xml version="1.0" encoding="UTF-8" standalone="no"?>
<svg
   xmlns:dc="http://purl.org/dc/elements/1.1/"
   xmlns:cc="http://creativecommons.org/ns#"
   xmlns:rdf="http://www.w3.org/1999/02/22-rdf-syntax-ns#"
   xmlns:svg="http://www.w3.org/2000/svg"
   xmlns="http://www.w3.org/2000/svg"
   xmlns:xlink="http://www.w3.org/1999/xlink"
   xmlns:sodipodi="http://sodipodi.sourceforge.net/DTD/sodipodi-0.dtd"
   xmlns:inkscape="http://www.inkscape.org/namespaces/inkscape"
   sodipodi:docname="problem-8.svg"
   inkscape:version="1.0 (4035a4fb49, 2020-05-01)"
   width="400"
   height="400"
   viewBox="0 0 105.83333 105.83334"
   version="1.1"
   id="svg8">
  <defs
     id="defs2">
    <g
       id="g8314">
      <symbol
         id="symbol8776"
         overflow="visible">
        <path
           id="path638"
           d=""
           style="stroke:none" />
      </symbol>
      <symbol
         id="symbol203"
         overflow="visible">
        <path
           id="path366"
           d="m 5.515625,-6.78125 h -5.1875 v 0.3125 H 0.5625 c 0.765625,0 0.796875,0.109375 0.796875,0.46875 v 5.21875 c 0,0.359375 -0.03125,0.46875 -0.796875,0.46875 H 0.328125 V 0 c 0.34375,-0.03125 1.125,-0.03125 1.515625,-0.03125 0.40625,0 1.3125,0 1.671875,0.03125 V -0.3125 H 3.1875 C 2.25,-0.3125 2.25,-0.4375 2.25,-0.78125 v -5.296875 c 0,-0.328125 0.015625,-0.390625 0.484375,-0.390625 h 1.03125 c 1.421875,0 1.625,0.59375 1.78125,1.9375 h 0.25 z m 0,0"
           style="stroke:none" />
      </symbol>
      <symbol
         id="symbol2278"
         overflow="visible">
        <path
           id="path8523"
           d=""
           style="stroke:none" />
      </symbol>
      <symbol
         id="symbol6057"
         overflow="visible">
        <path
           id="path116"
           d="m 2.875,-4.265625 c 0.046875,-0.203125 0.0625,-0.21875 0.21875,-0.25 h 0.453125 c 0.640625,0 1.4375,0 1.4375,0.71875 0,0.296875 -0.125,0.734375 -0.453125,0.984375 C 4.25,-2.59375 3.8125,-2.484375 3.328125,-2.484375 H 2.4375 Z M 4.140625,-2.375 c 0.828125,-0.1875 1.5625,-0.6875 1.5625,-1.3125 0,-0.59375 -0.703125,-1.078125 -1.71875,-1.078125 H 1.84375 c -0.125,0 -0.21875,0 -0.21875,0.15625 0,0.09375 0.078125,0.09375 0.21875,0.09375 0.015625,0 0.140625,0 0.265625,0.015625 0.15625,0.015625 0.15625,0.03125 0.15625,0.109375 0,0 0,0.046875 -0.015625,0.140625 L 1.3125,-0.546875 C 1.265625,-0.3125 1.25,-0.25 0.703125,-0.25 0.578125,-0.25 0.5,-0.25 0.5,-0.109375 0.5,-0.03125 0.546875,0 0.609375,0 c 0.125,0 0.296875,-0.015625 0.421875,-0.015625 0.140625,0 0.34375,-0.015625 0.46875,-0.015625 0.140625,0 0.296875,0.015625 0.4375,0.015625 C 2.09375,-0.015625 2.265625,0 2.40625,0 2.453125,0 2.5625,0 2.5625,-0.140625 2.5625,-0.25 2.484375,-0.25 2.328125,-0.25 2.21875,-0.25 2.1875,-0.25 2.0625,-0.265625 1.90625,-0.28125 1.90625,-0.296875 1.90625,-0.375 c 0,0 0,-0.046875 0.03125,-0.140625 L 2.375,-2.28125 h 0.953125 c 0.59375,0 0.859375,0.296875 0.859375,0.625 0,0.09375 -0.0625,0.328125 -0.109375,0.484375 C 4,-0.84375 3.96875,-0.75 3.96875,-0.625 c 0,0.546875 0.515625,0.765625 1.03125,0.765625 0.640625,0 0.921875,-0.6875 0.921875,-0.8125 0,-0.015625 -0.015625,-0.09375 -0.125,-0.09375 -0.09375,0 -0.109375,0.046875 -0.125,0.125 C 5.578125,-0.34375 5.3125,-0.0625 5.03125,-0.0625 c -0.1875,0 -0.328125,-0.0625 -0.328125,-0.453125 0,-0.171875 0.046875,-0.53125 0.078125,-0.71875 0.03125,-0.1875 0.03125,-0.25 0.03125,-0.328125 0,-0.078125 0,-0.3125 -0.203125,-0.515625 C 4.484375,-2.21875 4.296875,-2.3125 4.140625,-2.375 Z m 0,0"
           style="stroke:none" />
      </symbol>
    </g>
    <g
       id="g8565">
      <symbol
         id="symbol7099"
         overflow="visible">
        <path
           id="path4949"
           d=""
           style="stroke:none" />
      </symbol>
      <symbol
         id="symbol6156"
         overflow="visible">
        <path
           id="path2484"
           d="m 3.734375,-6.125 c 0.0625,-0.234375 0.09375,-0.328125 0.28125,-0.359375 C 4.109375,-6.5 4.421875,-6.5 4.625,-6.5 c 0.703125,0 1.8125,0 1.8125,0.984375 0,0.34375 -0.15625,1.03125 -0.546875,1.421875 -0.265625,0.25 -0.78125,0.578125 -1.6875,0.578125 H 3.09375 Z m 1.4375,2.734375 c 1.015625,-0.21875 2.1875,-0.921875 2.1875,-1.921875 0,-0.859375 -0.890625,-1.5 -2.203125,-1.5 H 2.328125 c -0.203125,0 -0.296875,0 -0.296875,0.203125 C 2.03125,-6.5 2.125,-6.5 2.3125,-6.5 c 0.015625,0 0.203125,0 0.375,0.015625 0.1875,0.03125 0.265625,0.03125 0.265625,0.171875 0,0.03125 0,0.0625 -0.03125,0.1875 l -1.34375,5.34375 C 1.484375,-0.390625 1.46875,-0.3125 0.671875,-0.3125 0.5,-0.3125 0.40625,-0.3125 0.40625,-0.109375 0.40625,0 0.53125,0 0.546875,0 c 0.28125,0 0.984375,-0.03125 1.25,-0.03125 0.28125,0 1,0.03125 1.28125,0.03125 0.078125,0 0.1875,0 0.1875,-0.203125 0,-0.109375 -0.078125,-0.109375 -0.28125,-0.109375 -0.359375,0 -0.640625,0 -0.640625,-0.171875 0,-0.0625 0.015625,-0.109375 0.03125,-0.171875 l 0.65625,-2.640625 h 1.1875 c 0.90625,0 1.078125,0.5625 1.078125,0.90625 0,0.140625 -0.078125,0.453125 -0.140625,0.6875 C 5.09375,-1.421875 5,-1.0625 5,-0.859375 5,0.21875 6.203125,0.21875 6.328125,0.21875 c 0.84375,0 1.203125,-1 1.203125,-1.140625 0,-0.125 -0.109375,-0.125 -0.125,-0.125 -0.09375,0 -0.109375,0.0625 -0.125,0.140625 C 7.03125,-0.171875 6.59375,0 6.375,0 6.046875,0 5.96875,-0.21875 5.96875,-0.609375 c 0,-0.3125 0.0625,-0.8125 0.109375,-1.140625 0.015625,-0.140625 0.03125,-0.328125 0.03125,-0.46875 0,-0.765625 -0.671875,-1.078125 -0.9375,-1.171875 z m 0,0"
           style="stroke:none" />
      </symbol>
    </g>
    <g
       id="g614">
      <symbol
         id="symbol8242"
         overflow="visible">
        <path
           id="path6435"
           d=""
           style="stroke:none" />
      </symbol>
      <symbol
         id="symbol7263"
         overflow="visible">
        <path
           id="path513"
           d="m 6.5625,-2.296875 c 0.171875,0 0.359375,0 0.359375,-0.203125 0,-0.1875 -0.1875,-0.1875 -0.359375,-0.1875 H 1.171875 c -0.171875,0 -0.34375,0 -0.34375,0.1875 0,0.203125 0.171875,0.203125 0.34375,0.203125 z m 0,0"
           style="stroke:none" />
      </symbol>
      <symbol
         id="symbol9299"
         overflow="visible">
        <path
           id="path3494"
           d=""
           style="stroke:none" />
      </symbol>
      <symbol
         id="symbol5403"
         overflow="visible">
        <path
           id="path9584"
           d="m 3.734375,-6.125 c 0.0625,-0.234375 0.09375,-0.328125 0.28125,-0.359375 C 4.109375,-6.5 4.421875,-6.5 4.625,-6.5 c 0.703125,0 1.8125,0 1.8125,0.984375 0,0.34375 -0.15625,1.03125 -0.546875,1.421875 -0.265625,0.25 -0.78125,0.578125 -1.6875,0.578125 H 3.09375 Z m 1.4375,2.734375 c 1.015625,-0.21875 2.1875,-0.921875 2.1875,-1.921875 0,-0.859375 -0.890625,-1.5 -2.203125,-1.5 H 2.328125 c -0.203125,0 -0.296875,0 -0.296875,0.203125 C 2.03125,-6.5 2.125,-6.5 2.3125,-6.5 c 0.015625,0 0.203125,0 0.375,0.015625 0.1875,0.03125 0.265625,0.03125 0.265625,0.171875 0,0.03125 0,0.0625 -0.03125,0.1875 l -1.34375,5.34375 C 1.484375,-0.390625 1.46875,-0.3125 0.671875,-0.3125 0.5,-0.3125 0.40625,-0.3125 0.40625,-0.109375 0.40625,0 0.53125,0 0.546875,0 c 0.28125,0 0.984375,-0.03125 1.25,-0.03125 0.28125,0 1,0.03125 1.28125,0.03125 0.078125,0 0.1875,0 0.1875,-0.203125 0,-0.109375 -0.078125,-0.109375 -0.28125,-0.109375 -0.359375,0 -0.640625,0 -0.640625,-0.171875 0,-0.0625 0.015625,-0.109375 0.03125,-0.171875 l 0.65625,-2.640625 h 1.1875 c 0.90625,0 1.078125,0.5625 1.078125,0.90625 0,0.140625 -0.078125,0.453125 -0.140625,0.6875 C 5.09375,-1.421875 5,-1.0625 5,-0.859375 5,0.21875 6.203125,0.21875 6.328125,0.21875 c 0.84375,0 1.203125,-1 1.203125,-1.140625 0,-0.125 -0.109375,-0.125 -0.125,-0.125 -0.09375,0 -0.109375,0.0625 -0.125,0.140625 C 7.03125,-0.171875 6.59375,0 6.375,0 6.046875,0 5.96875,-0.21875 5.96875,-0.609375 c 0,-0.3125 0.0625,-0.8125 0.109375,-1.140625 0.015625,-0.140625 0.03125,-0.328125 0.03125,-0.46875 0,-0.765625 -0.671875,-1.078125 -0.9375,-1.171875 z m 0,0"
           style="stroke:none" />
      </symbol>
    </g>
    <g
       id="g7563">
      <symbol
         id="symbol1594"
         overflow="visible">
        <path
           id="path6166"
           d=""
           style="stroke:none" />
      </symbol>
      <symbol
         id="symbol2467"
         overflow="visible">
        <path
           id="path3463"
           d="m 5.515625,-6.78125 h -5.1875 v 0.3125 H 0.5625 c 0.765625,0 0.796875,0.109375 0.796875,0.46875 v 5.21875 c 0,0.359375 -0.03125,0.46875 -0.796875,0.46875 H 0.328125 V 0 c 0.34375,-0.03125 1.125,-0.03125 1.515625,-0.03125 0.40625,0 1.3125,0 1.671875,0.03125 V -0.3125 H 3.1875 C 2.25,-0.3125 2.25,-0.4375 2.25,-0.78125 v -5.296875 c 0,-0.328125 0.015625,-0.390625 0.484375,-0.390625 h 1.03125 c 1.421875,0 1.625,0.59375 1.78125,1.9375 h 0.25 z m 0,0"
           style="stroke:none" />
      </symbol>
      <symbol
         id="symbol8633"
         overflow="visible">
        <path
           id="path8808"
           d=""
           style="stroke:none" />
      </symbol>
      <symbol
         id="symbol1913"
         overflow="visible">
        <path
           id="path1926"
           d="m 2.4375,-1.5625 c 0.09375,0 0.234375,0 0.234375,-0.125 0,-0.125 -0.109375,-0.125 -0.234375,-0.125 h -1.25 C 1.390625,-2.453125 1.84375,-2.75 2.453125,-2.75 H 2.71875 c 0.125,0 0.25,0 0.25,-0.140625 C 2.96875,-3 2.875,-3 2.734375,-3 H 2.4375 c -0.921875,0 -1.96875,0.640625 -1.96875,1.703125 0,0.8125 0.625,1.359375 1.4375,1.359375 0.203125,0 0.5,-0.03125 0.875,-0.234375 0.125,-0.078125 0.140625,-0.09375 0.140625,-0.140625 0,-0.015625 0,-0.140625 -0.09375,-0.140625 -0.03125,0 -0.046875,0 -0.09375,0.03125 C 2.5,-0.265625 2.203125,-0.125 1.921875,-0.125 1.640625,-0.125 1.0625,-0.265625 1.0625,-1.0625 c 0,-0.09375 0,-0.234375 0.0625,-0.5 z m 0,0"
           style="stroke:none" />
      </symbol>
    </g>
    <g
       id="g2113">
      <symbol
         id="symbol234"
         overflow="visible">
        <path
           id="path9652"
           d=""
           style="stroke:none" />
      </symbol>
      <symbol
         id="symbol1484"
         overflow="visible">
        <path
           id="path6484"
           d="M 0.40625,-2.53125 C 0.796875,-3.671875 1.890625,-3.6875 2,-3.6875 c 1.5,0 1.609375,1.75 1.609375,2.53125 0,0.609375 -0.046875,0.78125 -0.125,0.984375 -0.21875,0.71875 -0.515625,1.875 -0.515625,2.140625 0,0.109375 0.046875,0.171875 0.125,0.171875 0.140625,0 0.21875,-0.21875 0.328125,-0.59375 C 3.65625,0.703125 3.75,0.140625 3.78125,-0.171875 c 0.03125,-0.125 0.046875,-0.25 0.09375,-0.390625 0.3125,-0.984375 0.953125,-2.46875 1.34375,-3.25 0.078125,-0.125 0.1875,-0.34375 0.1875,-0.390625 0,-0.09375 -0.09375,-0.09375 -0.109375,-0.09375 -0.03125,0 -0.09375,0 -0.125,0.0625 C 4.65625,-3.28125 4.25,-2.28125 3.859375,-1.28125 3.84375,-1.578125 3.84375,-2.34375 3.453125,-3.3125 3.203125,-3.921875 2.8125,-4.40625 2.125,-4.40625 c -1.25,0 -1.953125,1.515625 -1.953125,1.828125 0,0.09375 0.09375,0.09375 0.203125,0.09375 z m 0,0"
           style="stroke:none" />
      </symbol>
      <symbol
         id="symbol6769"
         overflow="visible">
        <path
           id="path1055"
           d=""
           style="stroke:none" />
      </symbol>
      <symbol
         id="symbol9672"
         overflow="visible">
        <path
           id="path305"
           d="m 2.4375,-1.5625 c 0.09375,0 0.234375,0 0.234375,-0.125 0,-0.125 -0.109375,-0.125 -0.234375,-0.125 h -1.25 C 1.390625,-2.453125 1.84375,-2.75 2.453125,-2.75 H 2.71875 c 0.125,0 0.25,0 0.25,-0.140625 C 2.96875,-3 2.875,-3 2.734375,-3 H 2.4375 c -0.921875,0 -1.96875,0.640625 -1.96875,1.703125 0,0.8125 0.625,1.359375 1.4375,1.359375 0.203125,0 0.5,-0.03125 0.875,-0.234375 0.125,-0.078125 0.140625,-0.09375 0.140625,-0.140625 0,-0.015625 0,-0.140625 -0.09375,-0.140625 -0.03125,0 -0.046875,0 -0.09375,0.03125 C 2.5,-0.265625 2.203125,-0.125 1.921875,-0.125 1.640625,-0.125 1.0625,-0.265625 1.0625,-1.0625 c 0,-0.09375 0,-0.234375 0.0625,-0.5 z m 0,0"
           style="stroke:none" />
      </symbol>
    </g>
    <g
       id="g9176">
      <symbol
         id="symbol2366"
         overflow="visible">
        <path
           id="path4573"
           d=""
           style="stroke:none" />
      </symbol>
      <symbol
         id="symbol9954"
         overflow="visible">
        <path
           id="path869"
           d="M 0.40625,-2.53125 C 0.796875,-3.671875 1.890625,-3.6875 2,-3.6875 c 1.5,0 1.609375,1.75 1.609375,2.53125 0,0.609375 -0.046875,0.78125 -0.125,0.984375 -0.21875,0.71875 -0.515625,1.875 -0.515625,2.140625 0,0.109375 0.046875,0.171875 0.125,0.171875 0.140625,0 0.21875,-0.21875 0.328125,-0.59375 C 3.65625,0.703125 3.75,0.140625 3.78125,-0.171875 c 0.03125,-0.125 0.046875,-0.25 0.09375,-0.390625 0.3125,-0.984375 0.953125,-2.46875 1.34375,-3.25 0.078125,-0.125 0.1875,-0.34375 0.1875,-0.390625 0,-0.09375 -0.09375,-0.09375 -0.109375,-0.09375 -0.03125,0 -0.09375,0 -0.125,0.0625 C 4.65625,-3.28125 4.25,-2.28125 3.859375,-1.28125 3.84375,-1.578125 3.84375,-2.34375 3.453125,-3.3125 3.203125,-3.921875 2.8125,-4.40625 2.125,-4.40625 c -1.25,0 -1.953125,1.515625 -1.953125,1.828125 0,0.09375 0.09375,0.09375 0.203125,0.09375 z m 0,0"
           style="stroke:none" />
      </symbol>
      <symbol
         id="symbol250"
         overflow="visible">
        <path
           id="path9373"
           d=""
           style="stroke:none" />
      </symbol>
      <symbol
         id="symbol324"
         overflow="visible">
        <path
           id="path429"
           d="m 2.875,-4.265625 c 0.046875,-0.203125 0.0625,-0.21875 0.21875,-0.25 h 0.453125 c 0.640625,0 1.4375,0 1.4375,0.71875 0,0.296875 -0.125,0.734375 -0.453125,0.984375 C 4.25,-2.59375 3.8125,-2.484375 3.328125,-2.484375 H 2.4375 Z M 4.140625,-2.375 c 0.828125,-0.1875 1.5625,-0.6875 1.5625,-1.3125 0,-0.59375 -0.703125,-1.078125 -1.71875,-1.078125 H 1.84375 c -0.125,0 -0.21875,0 -0.21875,0.15625 0,0.09375 0.078125,0.09375 0.21875,0.09375 0.015625,0 0.140625,0 0.265625,0.015625 0.15625,0.015625 0.15625,0.03125 0.15625,0.109375 0,0 0,0.046875 -0.015625,0.140625 L 1.3125,-0.546875 C 1.265625,-0.3125 1.25,-0.25 0.703125,-0.25 0.578125,-0.25 0.5,-0.25 0.5,-0.109375 0.5,-0.03125 0.546875,0 0.609375,0 c 0.125,0 0.296875,-0.015625 0.421875,-0.015625 0.140625,0 0.34375,-0.015625 0.46875,-0.015625 0.140625,0 0.296875,0.015625 0.4375,0.015625 C 2.09375,-0.015625 2.265625,0 2.40625,0 2.453125,0 2.5625,0 2.5625,-0.140625 2.5625,-0.25 2.484375,-0.25 2.328125,-0.25 2.21875,-0.25 2.1875,-0.25 2.0625,-0.265625 1.90625,-0.28125 1.90625,-0.296875 1.90625,-0.375 c 0,0 0,-0.046875 0.03125,-0.140625 L 2.375,-2.28125 h 0.953125 c 0.59375,0 0.859375,0.296875 0.859375,0.625 0,0.09375 -0.0625,0.328125 -0.109375,0.484375 C 4,-0.84375 3.96875,-0.75 3.96875,-0.625 c 0,0.546875 0.515625,0.765625 1.03125,0.765625 0.640625,0 0.921875,-0.6875 0.921875,-0.8125 0,-0.015625 -0.015625,-0.09375 -0.125,-0.09375 -0.09375,0 -0.109375,0.046875 -0.125,0.125 C 5.578125,-0.34375 5.3125,-0.0625 5.03125,-0.0625 c -0.1875,0 -0.328125,-0.0625 -0.328125,-0.453125 0,-0.171875 0.046875,-0.53125 0.078125,-0.71875 0.03125,-0.1875 0.03125,-0.25 0.03125,-0.328125 0,-0.078125 0,-0.3125 -0.203125,-0.515625 C 4.484375,-2.21875 4.296875,-2.3125 4.140625,-2.375 Z m 0,0"
           style="stroke:none" />
      </symbol>
    </g>
    <g
       id="g2804">
      <symbol
         id="symbol2739"
         overflow="visible">
        <path
           id="path9836"
           d=""
           style="stroke:none" />
      </symbol>
      <symbol
         id="symbol4964"
         overflow="visible">
        <path
           id="path8187"
           d="m 2.96875,-2.25 c 0.15625,0 0.34375,0 0.34375,-0.171875 C 3.3125,-2.5625 3.1875,-2.5625 3.015625,-2.5625 H 1.40625 c 0.234375,-0.84375 0.796875,-1.421875 1.703125,-1.421875 h 0.3125 c 0.171875,0 0.328125,0 0.328125,-0.171875 0,-0.140625 -0.125,-0.140625 -0.296875,-0.140625 H 3.09375 c -1.296875,0 -2.625,1 -2.625,2.515625 0,1.109375 0.75,1.890625 1.796875,1.890625 0.65625,0 1.296875,-0.40625 1.296875,-0.515625 0,-0.015625 0,-0.125 -0.09375,-0.125 -0.015625,0 -0.046875,0 -0.125,0.046875 -0.3125,0.203125 -0.6875,0.375 -1.046875,0.375 -0.578125,0 -1.078125,-0.421875 -1.078125,-1.296875 0,-0.34375 0.078125,-0.734375 0.109375,-0.84375 z m 0,0"
           style="stroke:none" />
      </symbol>
    </g>
    <g
       id="g4868">
      <symbol
         id="symbol9255"
         overflow="visible">
        <path
           id="path4433"
           d=""
           style="stroke:none" />
      </symbol>
      <symbol
         id="symbol3396"
         overflow="visible">
        <path
           id="path1761"
           d="m 6.5625,-2.296875 c 0.171875,0 0.359375,0 0.359375,-0.203125 0,-0.1875 -0.1875,-0.1875 -0.359375,-0.1875 H 1.171875 c -0.171875,0 -0.34375,0 -0.34375,0.1875 0,0.203125 0.171875,0.203125 0.34375,0.203125 z m 0,0"
           style="stroke:none" />
      </symbol>
      <symbol
         id="symbol2639"
         overflow="visible">
        <path
           id="path4591"
           d=""
           style="stroke:none" />
      </symbol>
      <symbol
         id="symbol3292"
         overflow="visible">
        <path
           id="path5720"
           d="m 2.96875,-2.25 c 0.15625,0 0.34375,0 0.34375,-0.171875 C 3.3125,-2.5625 3.1875,-2.5625 3.015625,-2.5625 H 1.40625 c 0.234375,-0.84375 0.796875,-1.421875 1.703125,-1.421875 h 0.3125 c 0.171875,0 0.328125,0 0.328125,-0.171875 0,-0.140625 -0.125,-0.140625 -0.296875,-0.140625 H 3.09375 c -1.296875,0 -2.625,1 -2.625,2.515625 0,1.109375 0.75,1.890625 1.796875,1.890625 0.65625,0 1.296875,-0.40625 1.296875,-0.515625 0,-0.015625 0,-0.125 -0.09375,-0.125 -0.015625,0 -0.046875,0 -0.125,0.046875 -0.3125,0.203125 -0.6875,0.375 -1.046875,0.375 -0.578125,0 -1.078125,-0.421875 -1.078125,-1.296875 0,-0.34375 0.078125,-0.734375 0.109375,-0.84375 z m 0,0"
           style="stroke:none" />
      </symbol>
    </g>
  </defs>
  <sodipodi:namedview
     units="px"
     inkscape:window-maximized="1"
     inkscape:window-y="-9"
     inkscape:window-x="-9"
     inkscape:window-height="1001"
     inkscape:window-width="1920"
     showgrid="false"
     inkscape:document-rotation="0"
     inkscape:current-layer="layer1"
     inkscape:document-units="mm"
     inkscape:cy="608.11751"
     inkscape:cx="318.0435"
     inkscape:zoom="0.49497475"
     inkscape:pageshadow="2"
     inkscape:pageopacity="0.0"
     borderopacity="1.0"
     bordercolor="#666666"
     pagecolor="#ffffff"
     id="base" />
  <metadata
     id="metadata5">
    <rdf:RDF>
      <cc:Work
         rdf:about="">
        <dc:format>image/svg+xml</dc:format>
        <dc:type
           rdf:resource="http://purl.org/dc/dcmitype/StillImage" />
        <dc:title></dc:title>
      </cc:Work>
    </rdf:RDF>
  </metadata>
  <g
     id="layer1"
     inkscape:groupmode="layer"
     inkscape:label="Layer 1">
    <g
       transform="matrix(0.60422378,0,0,0.60422378,-10.137176,-18.983148)"
       id="g1665">
      <path
         id="path833"
         style="opacity:1;fill:none;stroke:#000000;stroke-width:9.99999;stroke-linecap:round;stroke-linejoin:round;stroke-miterlimit:4;stroke-dasharray:none"
         d="m 406.10156,296.98438 a 272.74119,272.74119 0 0 0 -272.74023,272.74218 272.74119,272.74119 0 0 0 0.041,4.66992 h 190.5625 a 84.267378,84.267378 0 0 1 -0.13086,-4.66992 84.267378,84.267378 0 0 1 83.89844,-84.26758 84.267378,84.267378 0 0 1 0.36914,0 84.267378,84.267378 0 0 1 84.26758,84.26758 84.267378,84.267378 0 0 1 -0.12891,4.66992 h 186.5625 a 272.74119,272.74119 0 0 0 0.041,-4.66992 272.74119,272.74119 0 0 0 -272.74219,-272.74218 z"
         transform="scale(0.26458333)" />
      <g
         id="g1034"
         transform="translate(85.625399,81.513837)"
         inkscape:label="">
        <g
           id="g7928">
          <g
             style="fill:#000000;fill-opacity:1"
             id="g3223">
            <use
               xlink:href="#symbol6156"
               x="91.925003"
               y="81.962997"
               id="use5958"
               width="100%"
               height="100%" />
          </g>
        </g>
      </g>
      <g
         id="g1089"
         transform="translate(-67.043377,82.582915)"
         inkscape:label="">
        <g
           id="g9738">
          <g
             style="fill:#000000;fill-opacity:1"
             id="g1264">
            <use
               xlink:href="#symbol7263"
               x="91.925003"
               y="81.962997"
               id="use9205"
               width="100%"
               height="100%" />
          </g>
          <g
             style="fill:#000000;fill-opacity:1"
             id="g5624">
            <use
               xlink:href="#symbol5403"
               x="99.674004"
               y="81.962997"
               id="use762"
               width="100%"
               height="100%" />
          </g>
        </g>
      </g>
      <g
         id="g1256"
         transform="translate(-10.057092,47.837877)"
         inkscape:label="">
        <g
           id="g4491">
          <g
             style="fill:#000000;fill-opacity:1"
             id="g9071">
            <use
               xlink:href="#symbol1484"
               x="91.925003"
               y="81.962997"
               id="use4745"
               width="100%"
               height="100%" />
          </g>
          <g
             style="fill:#000000;fill-opacity:1"
             id="g2363">
            <use
               xlink:href="#symbol9672"
               x="97.083"
               y="83.457001"
               id="use2418"
               width="100%"
               height="100%" />
          </g>
        </g>
      </g>
      <g
         id="g1362"
         transform="translate(51.949439,25.921775)"
         inkscape:label="">
        <g
           id="g3138">
          <g
             style="fill:#000000;fill-opacity:1"
             id="g7617">
            <use
               xlink:href="#symbol9954"
               x="91.925003"
               y="81.962997"
               id="use1162"
               width="100%"
               height="100%" />
          </g>
          <g
             style="fill:#000000;fill-opacity:1"
             id="g5914">
            <use
               xlink:href="#symbol324"
               x="97.083"
               y="83.457001"
               id="use6191"
               width="100%"
               height="100%" />
          </g>
        </g>
      </g>
      <g
         id="g1477"
         transform="translate(36.667937,81.513837)"
         inkscape:label="">
        <g
           id="g8348">
          <g
             style="fill:#000000;fill-opacity:1"
             id="g3333">
            <use
               xlink:href="#symbol4964"
               x="91.925003"
               y="81.962997"
               id="use5251"
               width="100%"
               height="100%" />
          </g>
        </g>
      </g>
      <g
         id="g1601"
         transform="translate(-14.867943,79.375681)"
         inkscape:label="">
        <g
           id="g5137">
          <g
             style="fill:#000000;fill-opacity:1"
             id="g5636">
            <use
               xlink:href="#symbol3396"
               x="91.925003"
               y="81.962997"
               id="use9906"
               width="100%"
               height="100%" />
          </g>
          <g
             style="fill:#000000;fill-opacity:1"
             id="g2954">
            <use
               xlink:href="#symbol3292"
               x="99.674004"
               y="81.962997"
               id="use4121"
               width="100%"
               height="100%" />
          </g>
        </g>
      </g>
      <path
         style="fill:none;stroke:#000000;stroke-width:1.32292;stroke-linecap:butt;stroke-linejoin:miter;stroke-miterlimit:4;stroke-dasharray:none;stroke-opacity:1"
         d="m 105.07738,118.30655 12.09524,12.47321 -13.22917,6.4256"
         id="path1620" />
      <path
         style="fill:none;stroke:#000000;stroke-width:1.32292;stroke-linecap:butt;stroke-linejoin:miter;stroke-miterlimit:4;stroke-dasharray:none;stroke-opacity:1"
         d="m 150.8125,142.7238 12.09524,9.82739 -12.09524,6.04761"
         id="path1622" />
      <path
         id="path1624"
         d="m 51.026786,142.7238 12.09524,9.82739 -12.09524,6.04761"
         style="fill:none;stroke:#000000;stroke-width:1.32292;stroke-linecap:butt;stroke-linejoin:miter;stroke-miterlimit:4;stroke-dasharray:none;stroke-opacity:1" />
      <path
         id="path1626"
         d="m 119.54294,91.050256 -12.09524,-12.47314 13.22917,-6.42559"
         style="fill:none;stroke:#000000;stroke-width:1.32292;stroke-linecap:butt;stroke-linejoin:miter;stroke-miterlimit:4;stroke-dasharray:none;stroke-opacity:1" />
    </g>
  </g>
</svg>
