<?xml version="1.0" encoding="UTF-8" standalone="no"?>
<svg
   xmlns:dc="http://purl.org/dc/elements/1.1/"
   xmlns:cc="http://creativecommons.org/ns#"
   xmlns:rdf="http://www.w3.org/1999/02/22-rdf-syntax-ns#"
   xmlns:svg="http://www.w3.org/2000/svg"
   xmlns="http://www.w3.org/2000/svg"
   xmlns:xlink="http://www.w3.org/1999/xlink"
   xmlns:sodipodi="http://sodipodi.sourceforge.net/DTD/sodipodi-0.dtd"
   xmlns:inkscape="http://www.inkscape.org/namespaces/inkscape"
   sodipodi:docname="drawing.svg"
   inkscape:version="1.0 (4035a4fb49, 2020-05-01)"
   id="svg8"
   version="1.1"
   viewBox="0 0 210 297"
   height="297mm"
   width="210mm"
   inkscape:export-filename="D:\Academic\Assignments\Computational_Finance_DM\Problem Solving\drawing.png"
   inkscape:export-xdpi="96"
   inkscape:export-ydpi="96">
  <defs
     id="defs2">
    <g
       id="g2264">
      <symbol
         overflow="visible"
         id="symbol4970">
        <path
           style="stroke:none;"
           d=""
           id="path1583" />
      </symbol>
      <symbol
         overflow="visible"
         id="symbol602">
        <path
           style="stroke:none;"
           d="M 3.875 8.515625 L 2.125 4.640625 C 2.046875 4.484375 2 4.484375 1.96875 4.484375 C 1.96875 4.484375 1.90625 4.484375 1.796875 4.5625 L 0.859375 5.28125 C 0.734375 5.390625 0.734375 5.40625 0.734375 5.4375 C 0.734375 5.5 0.75 5.546875 0.828125 5.546875 C 0.890625 5.546875 1.0625 5.40625 1.171875 5.328125 C 1.21875 5.28125 1.375 5.171875 1.484375 5.09375 L 3.453125 9.40625 C 3.515625 9.5625 3.5625 9.5625 3.65625 9.5625 C 3.8125 9.5625 3.84375 9.515625 3.90625 9.375 L 8.4375 0 C 8.5 -0.140625 8.5 -0.171875 8.5 -0.203125 C 8.5 -0.296875 8.421875 -0.40625 8.296875 -0.40625 C 8.21875 -0.40625 8.15625 -0.34375 8.078125 -0.1875 Z M 3.875 8.515625 "
           id="path2324" />
      </symbol>
      <symbol
         overflow="visible"
         id="symbol4821">
        <path
           style="stroke:none;"
           d=""
           id="path2749" />
      </symbol>
      <symbol
         overflow="visible"
         id="symbol1860">
        <path
           style="stroke:none;"
           d="M 3.484375 -0.5625 C 3.59375 -0.15625 3.953125 0.109375 4.375 0.109375 C 4.71875 0.109375 4.953125 -0.125 5.109375 -0.4375 C 5.28125 -0.796875 5.40625 -1.40625 5.40625 -1.421875 C 5.40625 -1.53125 5.328125 -1.53125 5.296875 -1.53125 C 5.1875 -1.53125 5.1875 -1.484375 5.15625 -1.34375 C 5.015625 -0.78125 4.828125 -0.109375 4.40625 -0.109375 C 4.203125 -0.109375 4.09375 -0.234375 4.09375 -0.5625 C 4.09375 -0.78125 4.21875 -1.25 4.296875 -1.609375 L 4.578125 -2.6875 C 4.609375 -2.828125 4.703125 -3.203125 4.75 -3.359375 C 4.796875 -3.59375 4.890625 -3.96875 4.890625 -4.03125 C 4.890625 -4.203125 4.75 -4.296875 4.609375 -4.296875 C 4.5625 -4.296875 4.296875 -4.28125 4.21875 -3.953125 C 4.03125 -3.21875 3.59375 -1.46875 3.46875 -0.953125 C 3.453125 -0.90625 3.0625 -0.109375 2.328125 -0.109375 C 1.8125 -0.109375 1.71875 -0.5625 1.71875 -0.921875 C 1.71875 -1.484375 2 -2.265625 2.25 -2.953125 C 2.375 -3.265625 2.421875 -3.40625 2.421875 -3.59375 C 2.421875 -4.03125 2.109375 -4.40625 1.609375 -4.40625 C 0.65625 -4.40625 0.296875 -2.953125 0.296875 -2.875 C 0.296875 -2.765625 0.390625 -2.765625 0.40625 -2.765625 C 0.515625 -2.765625 0.515625 -2.796875 0.5625 -2.953125 C 0.8125 -3.8125 1.203125 -4.1875 1.578125 -4.1875 C 1.671875 -4.1875 1.828125 -4.171875 1.828125 -3.859375 C 1.828125 -3.625 1.71875 -3.328125 1.65625 -3.1875 C 1.28125 -2.1875 1.078125 -1.578125 1.078125 -1.09375 C 1.078125 -0.140625 1.765625 0.109375 2.296875 0.109375 C 2.953125 0.109375 3.3125 -0.34375 3.484375 -0.5625 Z M 3.484375 -0.5625 "
           id="path7698" />
      </symbol>
    </g>
  </defs>
  <sodipodi:namedview
     id="base"
     pagecolor="#ffffff"
     bordercolor="#666666"
     borderopacity="1.0"
     inkscape:pageopacity="0.0"
     inkscape:pageshadow="2"
     inkscape:zoom="1"
     inkscape:cx="400"
     inkscape:cy="640"
     inkscape:document-units="mm"
     inkscape:current-layer="layer1"
     inkscape:document-rotation="0"
     showgrid="false"
     inkscape:window-width="1920"
     inkscape:window-height="1001"
     inkscape:window-x="-9"
     inkscape:window-y="-9"
     inkscape:window-maximized="1" />
  <metadata
     id="metadata5">
    <rdf:RDF>
      <cc:Work
         rdf:about="">
        <dc:format>image/svg+xml</dc:format>
        <dc:type
           rdf:resource="http://purl.org/dc/dcmitype/StillImage" />
        <dc:title />
      </cc:Work>
    </rdf:RDF>
  </metadata>
  <g
     inkscape:label="Layer 1"
     inkscape:groupmode="layer"
     id="layer1">
    <circle
       style="fill:none;stroke:#000000;stroke-width:0.529167;stroke-opacity:1"
       id="path835"
       cx="47.624992"
       cy="124.08958"
       r="33.072918" />
    <path
       id="circle837"
       style="fill:#ff0000;fill-opacity:1;stroke:none;stroke-width:1.36508;stroke-opacity:1"
       d="M 222.18164 394.83984 L 171.51953 477.96289 L 264.58203 480.17578 A 85.317468 85.317468 0 0 0 265.31836 469 A 85.317468 85.317468 0 0 0 222.18164 394.83984 z "
       transform="scale(0.26458333)" />
    <circle
       r="33.072918"
       cy="124.08958"
       cx="144.19791"
       id="circle841"
       style="fill:none;stroke:#000000;stroke-width:0.529167;stroke-opacity:1" />
    <path
       id="circle843"
       style="fill:#ff0000;fill-opacity:1;stroke:none;stroke-width:1.36508;stroke-opacity:1"
       d="M 545 383.68164 A 85.317468 85.317468 0 0 0 482.85547 410.54492 L 545 472 L 630.2793 471.52344 A 85.317468 85.317468 0 0 0 630.31836 469 A 85.317468 85.317468 0 0 0 545 383.68164 z "
       transform="scale(0.26458333)" />
    <circle
       style="fill:none;stroke:#000000;stroke-width:0.529167;stroke-opacity:1"
       id="circle845"
       cx="144.19791"
       cy="211.93124"
       r="33.072918" />
    <path
       id="circle847"
       style="fill:#ff0000;fill-opacity:1;stroke:none;stroke-width:1.36508;stroke-opacity:1"
       d="M 545 715.68164 A 85.317468 85.317468 0 0 0 459.68164 801 A 85.317468 85.317468 0 0 0 475.99219 851.16992 L 547.30273 810 L 629.83984 810 A 85.317468 85.317468 0 0 0 630.31836 801 A 85.317468 85.317468 0 0 0 545 715.68164 z "
       transform="scale(0.26458333)" />
    <text
       xml:space="preserve"
       style="font-style:normal;font-weight:normal;font-size:10.5833px;line-height:1.25;font-family:sans-serif;fill:#000000;fill-opacity:1;stroke:none;stroke-width:0.264583"
       x="55.033333"
       y="133.87917"
       id="text872"><tspan
         sodipodi:role="line"
         id="tspan870"
         x="55.033333"
         y="133.87917"
         style="font-style:italic;font-size:5.64444px;stroke-width:0.264583" /></text>
    <g
       id="g908"
       transform="matrix(0.58130213,0,0,0.46917451,-1.4207167,94.78145)"
       inkscape:label="">
      <g
         id="g4059">
        <g
           style="fill:#000000;fill-opacity:1"
           id="g3865">
          <use
             xlink:href="#symbol602"
             x="91.925003"
             y="74.787003"
             id="use4758"
             width="100%"
             height="100%" />
        </g>
        <path
           style="fill:none;stroke:#000000;stroke-width:0.398;stroke-linecap:butt;stroke-linejoin:miter;stroke-miterlimit:10;stroke-opacity:1"
           d="M -4.375e-4,-0.00184375 H 5.702687"
           transform="matrix(1,0,0,-1,100.227,74.588)"
           id="path3799" />
        <g
           style="fill:#000000;fill-opacity:1"
           id="g8005">
          <use
             xlink:href="#symbol1860"
             x="100.227"
             y="81.962997"
             id="use7189"
             width="100%"
             height="100%" />
        </g>
      </g>
    </g>
    <g
       inkscape:label=""
       transform="matrix(0.58130213,0,0,0.46917451,95.1522,92.4002)"
       id="g940">
      <g
         id="g938">
        <g
           id="g930"
           style="fill:#000000;fill-opacity:1">
          <use
             height="100%"
             width="100%"
             id="use928"
             y="74.787003"
             x="91.925003"
             xlink:href="#symbol602" />
        </g>
        <path
           id="path932"
           transform="matrix(1,0,0,-1,100.227,74.588)"
           d="M -4.375e-4,-0.00184375 H 5.702687"
           style="fill:none;stroke:#000000;stroke-width:0.398;stroke-linecap:butt;stroke-linejoin:miter;stroke-miterlimit:10;stroke-opacity:1" />
        <g
           id="g936"
           style="fill:#000000;fill-opacity:1">
          <use
             height="100%"
             width="100%"
             id="use934"
             y="81.962997"
             x="100.227"
             xlink:href="#symbol1860" />
        </g>
      </g>
    </g>
    <g
       id="g954"
       transform="matrix(0.58130213,0,0,0.46917451,97.004283,182.09395)"
       inkscape:label="">
      <g
         id="g952">
        <g
           style="fill:#000000;fill-opacity:1"
           id="g944">
          <use
             xlink:href="#symbol602"
             x="91.925003"
             y="74.787003"
             id="use942"
             width="100%"
             height="100%" />
        </g>
        <path
           style="fill:none;stroke:#000000;stroke-width:0.398;stroke-linecap:butt;stroke-linejoin:miter;stroke-miterlimit:10;stroke-opacity:1"
           d="M -4.375e-4,-0.00184375 H 5.702687"
           transform="matrix(1,0,0,-1,100.227,74.588)"
           id="path946" />
        <g
           style="fill:#000000;fill-opacity:1"
           id="g950">
          <use
             xlink:href="#symbol1860"
             x="100.227"
             y="81.962997"
             id="use948"
             width="100%"
             height="100%" />
        </g>
      </g>
    </g>
    <path
       d="m 149.92578,232.97093 -6.35202,-24.96035 -17.63416,17.19479 a 22.57358,22.57358 0 0 0 1.97785,2.20669 22.57358,22.57358 0 0 0 22.00833,5.55887 z"
       style="fill:#ff0000;fill-opacity:1;stroke:none;stroke-width:0.361177;stroke-opacity:1"
       id="path868" />
  </g>
</svg>
