<?xml version="1.0" encoding="UTF-8" standalone="no"?>
<svg
   xmlns:dc="http://purl.org/dc/elements/1.1/"
   xmlns:cc="http://creativecommons.org/ns#"
   xmlns:rdf="http://www.w3.org/1999/02/22-rdf-syntax-ns#"
   xmlns:svg="http://www.w3.org/2000/svg"
   xmlns="http://www.w3.org/2000/svg"
   xmlns:xlink="http://www.w3.org/1999/xlink"
   xmlns:sodipodi="http://sodipodi.sourceforge.net/DTD/sodipodi-0.dtd"
   xmlns:inkscape="http://www.inkscape.org/namespaces/inkscape"
   inkscape:export-ydpi="96"
   inkscape:export-xdpi="96"
   inkscape:export-filename="D:\Assignments\Complex Analysis_PD\circle-arc.png"
   width="800"
   height="800"
   viewBox="0 0 211.66666 211.66667"
   version="1.1"
   id="svg8"
   inkscape:version="1.0 (4035a4fb49, 2020-05-01)"
   sodipodi:docname="circle-arc.svg">
  <defs
     id="defs2">
    <g
       id="g8335">
      <symbol
         id="symbol6349"
         overflow="visible">
        <path
           id="path1013"
           d=""
           style="stroke:none;" />
      </symbol>
      <symbol
         id="symbol5981"
         overflow="visible">
        <path
           id="path186"
           d="M 5.515625 -6.78125 L 0.328125 -6.78125 L 0.328125 -6.46875 L 0.5625 -6.46875 C 1.328125 -6.46875 1.359375 -6.359375 1.359375 -6 L 1.359375 -0.78125 C 1.359375 -0.421875 1.328125 -0.3125 0.5625 -0.3125 L 0.328125 -0.3125 L 0.328125 0 C 0.671875 -0.03125 1.453125 -0.03125 1.84375 -0.03125 C 2.25 -0.03125 3.15625 -0.03125 3.515625 0 L 3.515625 -0.3125 L 3.1875 -0.3125 C 2.25 -0.3125 2.25 -0.4375 2.25 -0.78125 L 2.25 -6.078125 C 2.25 -6.40625 2.265625 -6.46875 2.734375 -6.46875 L 3.765625 -6.46875 C 5.1875 -6.46875 5.390625 -5.875 5.546875 -4.53125 L 5.796875 -4.53125 Z M 5.515625 -6.78125 "
           style="stroke:none;" />
      </symbol>
      <symbol
         id="symbol4261"
         overflow="visible">
        <path
           id="path4047"
           d=""
           style="stroke:none;" />
      </symbol>
      <symbol
         id="symbol4749"
         overflow="visible">
        <path
           id="path2173"
           d="M 2.46875 -5.21875 C 1.15625 -4.296875 0.796875 -2.8125 0.796875 -1.75 C 0.796875 -0.765625 1.09375 0.765625 2.46875 1.734375 C 2.53125 1.734375 2.609375 1.734375 2.609375 1.65625 C 2.609375 1.609375 2.59375 1.59375 2.546875 1.546875 C 1.609375 0.703125 1.28125 -0.46875 1.28125 -1.734375 C 1.28125 -3.625 2 -4.546875 2.5625 -5.0625 C 2.59375 -5.09375 2.609375 -5.109375 2.609375 -5.140625 C 2.609375 -5.21875 2.53125 -5.21875 2.46875 -5.21875 Z M 2.46875 -5.21875 "
           style="stroke:none;" />
      </symbol>
      <symbol
         id="symbol6613"
         overflow="visible">
        <path
           id="path4849"
           d="M 2.328125 -4.4375 C 2.328125 -4.625 2.328125 -4.625 2.125 -4.625 C 1.671875 -4.1875 1.046875 -4.1875 0.765625 -4.1875 L 0.765625 -3.9375 C 0.921875 -3.9375 1.390625 -3.9375 1.765625 -4.125 L 1.765625 -0.578125 C 1.765625 -0.34375 1.765625 -0.25 1.078125 -0.25 L 0.8125 -0.25 L 0.8125 0 C 0.9375 0 1.796875 -0.03125 2.046875 -0.03125 C 2.265625 -0.03125 3.140625 0 3.296875 0 L 3.296875 -0.25 L 3.03125 -0.25 C 2.328125 -0.25 2.328125 -0.34375 2.328125 -0.578125 Z M 2.328125 -4.4375 "
           style="stroke:none;" />
      </symbol>
      <symbol
         id="symbol8364"
         overflow="visible">
        <path
           id="path4943"
           d="M 0.625 -5.21875 C 0.578125 -5.21875 0.5 -5.21875 0.5 -5.140625 C 0.5 -5.109375 0.515625 -5.09375 0.5625 -5.03125 C 1.15625 -4.484375 1.828125 -3.546875 1.828125 -1.75 C 1.828125 -0.296875 1.375 0.8125 0.625 1.484375 C 0.5 1.609375 0.5 1.609375 0.5 1.65625 C 0.5 1.6875 0.515625 1.734375 0.578125 1.734375 C 0.671875 1.734375 1.328125 1.28125 1.796875 0.40625 C 2.09375 -0.171875 2.296875 -0.921875 2.296875 -1.734375 C 2.296875 -2.71875 2 -4.25 0.625 -5.21875 Z M 0.625 -5.21875 "
           style="stroke:none;" />
      </symbol>
      <symbol
         id="symbol4506"
         overflow="visible">
        <path
           id="path6728"
           d=""
           style="stroke:none;" />
      </symbol>
      <symbol
         id="symbol8473"
         overflow="visible">
        <path
           id="path9135"
           d="M 5.1875 -1.578125 C 5.296875 -1.578125 5.46875 -1.578125 5.46875 -1.734375 C 5.46875 -1.921875 5.296875 -1.921875 5.1875 -1.921875 L 1.03125 -1.921875 C 0.921875 -1.921875 0.75 -1.921875 0.75 -1.75 C 0.75 -1.578125 0.90625 -1.578125 1.03125 -1.578125 Z M 5.1875 -1.578125 "
           style="stroke:none;" />
      </symbol>
      <symbol
         id="symbol9359"
         overflow="visible">
        <path
           id="path5623"
           d=""
           style="stroke:none;" />
      </symbol>
      <symbol
         id="symbol7752"
         overflow="visible">
        <path
           id="path4873"
           d="M 2.4375 -1.5625 C 2.53125 -1.5625 2.671875 -1.5625 2.671875 -1.6875 C 2.671875 -1.8125 2.5625 -1.8125 2.4375 -1.8125 L 1.1875 -1.8125 C 1.390625 -2.453125 1.84375 -2.75 2.453125 -2.75 L 2.71875 -2.75 C 2.84375 -2.75 2.96875 -2.75 2.96875 -2.890625 C 2.96875 -3 2.875 -3 2.734375 -3 L 2.4375 -3 C 1.515625 -3 0.46875 -2.359375 0.46875 -1.296875 C 0.46875 -0.484375 1.09375 0.0625 1.90625 0.0625 C 2.109375 0.0625 2.40625 0.03125 2.78125 -0.171875 C 2.90625 -0.25 2.921875 -0.265625 2.921875 -0.3125 C 2.921875 -0.328125 2.921875 -0.453125 2.828125 -0.453125 C 2.796875 -0.453125 2.78125 -0.453125 2.734375 -0.421875 C 2.5 -0.265625 2.203125 -0.125 1.921875 -0.125 C 1.640625 -0.125 1.0625 -0.265625 1.0625 -1.0625 C 1.0625 -1.15625 1.0625 -1.296875 1.125 -1.5625 Z M 2.4375 -1.5625 "
           style="stroke:none;" />
      </symbol>
    </g>
    <g
       id="g3995">
      <symbol
         id="symbol168"
         overflow="visible">
        <path
           id="path3526"
           d=""
           style="stroke:none;" />
      </symbol>
      <symbol
         id="symbol8025"
         overflow="visible">
        <path
           id="path7730"
           d="M 5.515625 -6.78125 L 0.328125 -6.78125 L 0.328125 -6.46875 L 0.5625 -6.46875 C 1.328125 -6.46875 1.359375 -6.359375 1.359375 -6 L 1.359375 -0.78125 C 1.359375 -0.421875 1.328125 -0.3125 0.5625 -0.3125 L 0.328125 -0.3125 L 0.328125 0 C 0.671875 -0.03125 1.453125 -0.03125 1.84375 -0.03125 C 2.25 -0.03125 3.15625 -0.03125 3.515625 0 L 3.515625 -0.3125 L 3.1875 -0.3125 C 2.25 -0.3125 2.25 -0.4375 2.25 -0.78125 L 2.25 -6.078125 C 2.25 -6.40625 2.265625 -6.46875 2.734375 -6.46875 L 3.765625 -6.46875 C 5.1875 -6.46875 5.390625 -5.875 5.546875 -4.53125 L 5.796875 -4.53125 Z M 5.515625 -6.78125 "
           style="stroke:none;" />
      </symbol>
      <symbol
         id="symbol6478"
         overflow="visible">
        <path
           id="path1641"
           d=""
           style="stroke:none;" />
      </symbol>
      <symbol
         id="symbol4335"
         overflow="visible">
        <path
           id="path3774"
           d="M 2.46875 -5.21875 C 1.15625 -4.296875 0.796875 -2.8125 0.796875 -1.75 C 0.796875 -0.765625 1.09375 0.765625 2.46875 1.734375 C 2.53125 1.734375 2.609375 1.734375 2.609375 1.65625 C 2.609375 1.609375 2.59375 1.59375 2.546875 1.546875 C 1.609375 0.703125 1.28125 -0.46875 1.28125 -1.734375 C 1.28125 -3.625 2 -4.546875 2.5625 -5.0625 C 2.59375 -5.09375 2.609375 -5.109375 2.609375 -5.140625 C 2.609375 -5.21875 2.53125 -5.21875 2.46875 -5.21875 Z M 2.46875 -5.21875 "
           style="stroke:none;" />
      </symbol>
      <symbol
         id="symbol8516"
         overflow="visible">
        <path
           id="path3409"
           d="M 2.328125 -4.4375 C 2.328125 -4.625 2.328125 -4.625 2.125 -4.625 C 1.671875 -4.1875 1.046875 -4.1875 0.765625 -4.1875 L 0.765625 -3.9375 C 0.921875 -3.9375 1.390625 -3.9375 1.765625 -4.125 L 1.765625 -0.578125 C 1.765625 -0.34375 1.765625 -0.25 1.078125 -0.25 L 0.8125 -0.25 L 0.8125 0 C 0.9375 0 1.796875 -0.03125 2.046875 -0.03125 C 2.265625 -0.03125 3.140625 0 3.296875 0 L 3.296875 -0.25 L 3.03125 -0.25 C 2.328125 -0.25 2.328125 -0.34375 2.328125 -0.578125 Z M 2.328125 -4.4375 "
           style="stroke:none;" />
      </symbol>
      <symbol
         id="symbol7738"
         overflow="visible">
        <path
           id="path7308"
           d="M 3.21875 -1.578125 L 5.359375 -1.578125 C 5.453125 -1.578125 5.609375 -1.578125 5.609375 -1.734375 C 5.609375 -1.921875 5.453125 -1.921875 5.359375 -1.921875 L 3.21875 -1.921875 L 3.21875 -4.0625 C 3.21875 -4.140625 3.21875 -4.3125 3.0625 -4.3125 C 2.890625 -4.3125 2.890625 -4.15625 2.890625 -4.0625 L 2.890625 -1.921875 L 0.75 -1.921875 C 0.65625 -1.921875 0.484375 -1.921875 0.484375 -1.75 C 0.484375 -1.578125 0.640625 -1.578125 0.75 -1.578125 L 2.890625 -1.578125 L 2.890625 0.5625 C 2.890625 0.65625 2.890625 0.828125 3.046875 0.828125 C 3.21875 0.828125 3.21875 0.65625 3.21875 0.5625 Z M 3.21875 -1.578125 "
           style="stroke:none;" />
      </symbol>
      <symbol
         id="symbol3191"
         overflow="visible">
        <path
           id="path2972"
           d="M 0.625 -5.21875 C 0.578125 -5.21875 0.5 -5.21875 0.5 -5.140625 C 0.5 -5.109375 0.515625 -5.09375 0.5625 -5.03125 C 1.15625 -4.484375 1.828125 -3.546875 1.828125 -1.75 C 1.828125 -0.296875 1.375 0.8125 0.625 1.484375 C 0.5 1.609375 0.5 1.609375 0.5 1.65625 C 0.5 1.6875 0.515625 1.734375 0.578125 1.734375 C 0.671875 1.734375 1.328125 1.28125 1.796875 0.40625 C 2.09375 -0.171875 2.296875 -0.921875 2.296875 -1.734375 C 2.296875 -2.71875 2 -4.25 0.625 -5.21875 Z M 0.625 -5.21875 "
           style="stroke:none;" />
      </symbol>
      <symbol
         id="symbol4217"
         overflow="visible">
        <path
           id="path3273"
           d=""
           style="stroke:none;" />
      </symbol>
      <symbol
         id="symbol5148"
         overflow="visible">
        <path
           id="path5395"
           d="M 2.4375 -1.5625 C 2.53125 -1.5625 2.671875 -1.5625 2.671875 -1.6875 C 2.671875 -1.8125 2.5625 -1.8125 2.4375 -1.8125 L 1.1875 -1.8125 C 1.390625 -2.453125 1.84375 -2.75 2.453125 -2.75 L 2.71875 -2.75 C 2.84375 -2.75 2.96875 -2.75 2.96875 -2.890625 C 2.96875 -3 2.875 -3 2.734375 -3 L 2.4375 -3 C 1.515625 -3 0.46875 -2.359375 0.46875 -1.296875 C 0.46875 -0.484375 1.09375 0.0625 1.90625 0.0625 C 2.109375 0.0625 2.40625 0.03125 2.78125 -0.171875 C 2.90625 -0.25 2.921875 -0.265625 2.921875 -0.3125 C 2.921875 -0.328125 2.921875 -0.453125 2.828125 -0.453125 C 2.796875 -0.453125 2.78125 -0.453125 2.734375 -0.421875 C 2.5 -0.265625 2.203125 -0.125 1.921875 -0.125 C 1.640625 -0.125 1.0625 -0.265625 1.0625 -1.0625 C 1.0625 -1.15625 1.0625 -1.296875 1.125 -1.5625 Z M 2.4375 -1.5625 "
           style="stroke:none;" />
      </symbol>
    </g>
    <g
       id="g2241">
      <symbol
         id="symbol1131"
         overflow="visible">
        <path
           id="path5447"
           d=""
           style="stroke:none;" />
      </symbol>
      <symbol
         id="symbol729"
         overflow="visible">
        <path
           id="path3973"
           d="M 4.75 -2.359375 C 4.75 -3.921875 3.828125 -4.40625 3.09375 -4.40625 C 1.71875 -4.40625 0.40625 -2.984375 0.40625 -1.578125 C 0.40625 -0.640625 1 0.109375 2.03125 0.109375 C 2.65625 0.109375 3.375 -0.125 4.125 -0.734375 C 4.25 -0.203125 4.578125 0.109375 5.03125 0.109375 C 5.5625 0.109375 5.875 -0.4375 5.875 -0.59375 C 5.875 -0.671875 5.8125 -0.703125 5.75 -0.703125 C 5.6875 -0.703125 5.65625 -0.671875 5.625 -0.59375 C 5.4375 -0.109375 5.078125 -0.109375 5.0625 -0.109375 C 4.75 -0.109375 4.75 -0.890625 4.75 -1.125 C 4.75 -1.328125 4.75 -1.359375 4.859375 -1.46875 C 5.796875 -2.65625 6 -3.8125 6 -3.8125 C 6 -3.84375 5.984375 -3.921875 5.875 -3.921875 C 5.78125 -3.921875 5.78125 -3.890625 5.734375 -3.703125 C 5.546875 -3.078125 5.21875 -2.328125 4.75 -1.734375 Z M 4.09375 -0.984375 C 3.203125 -0.21875 2.4375 -0.109375 2.046875 -0.109375 C 1.453125 -0.109375 1.140625 -0.5625 1.140625 -1.203125 C 1.140625 -1.6875 1.40625 -2.765625 1.71875 -3.265625 C 2.1875 -4 2.734375 -4.1875 3.078125 -4.1875 C 4.0625 -4.1875 4.0625 -2.875 4.0625 -2.109375 C 4.0625 -1.734375 4.0625 -1.15625 4.09375 -0.984375 Z M 4.09375 -0.984375 "
           style="stroke:none;" />
      </symbol>
    </g>
    <g
       id="g9009">
      <symbol
         id="symbol9927"
         overflow="visible">
        <path
           id="path6408"
           d=""
           style="stroke:none;" />
      </symbol>
      <symbol
         id="symbol6873"
         overflow="visible">
        <path
           id="path2139"
           d="M 5.734375 -5.671875 C 5.734375 -6.421875 5.1875 -7.03125 4.375 -7.03125 C 3.796875 -7.03125 3.515625 -6.875 3.171875 -6.625 C 2.625 -6.21875 2.078125 -5.25 1.890625 -4.5 L 0.296875 1.828125 C 0.296875 1.875 0.34375 1.9375 0.421875 1.9375 C 0.5 1.9375 0.53125 1.90625 0.53125 1.890625 L 1.234375 -0.875 C 1.421875 -0.265625 1.859375 0.09375 2.59375 0.09375 C 3.3125 0.09375 4.0625 -0.25 4.515625 -0.6875 C 5 -1.140625 5.3125 -1.78125 5.3125 -2.515625 C 5.3125 -3.234375 4.9375 -3.765625 4.578125 -4 C 5.15625 -4.34375 5.734375 -4.953125 5.734375 -5.671875 Z M 3.9375 -4.015625 C 3.8125 -3.96875 3.703125 -3.953125 3.453125 -3.953125 C 3.3125 -3.953125 3.125 -3.9375 3.015625 -3.984375 C 3.046875 -4.09375 3.40625 -4.0625 3.515625 -4.0625 C 3.71875 -4.0625 3.8125 -4.0625 3.9375 -4.015625 Z M 5.171875 -5.90625 C 5.171875 -5.203125 4.796875 -4.484375 4.28125 -4.171875 C 4 -4.28125 3.8125 -4.296875 3.515625 -4.296875 C 3.296875 -4.296875 2.734375 -4.3125 2.734375 -3.984375 C 2.734375 -3.703125 3.25 -3.734375 3.421875 -3.734375 C 3.796875 -3.734375 3.953125 -3.734375 4.25 -3.859375 C 4.625 -3.5 4.671875 -3.1875 4.6875 -2.734375 C 4.703125 -2.15625 4.46875 -1.40625 4.1875 -1.015625 C 3.796875 -0.484375 3.125 -0.125 2.5625 -0.125 C 1.796875 -0.125 1.421875 -0.703125 1.421875 -1.40625 C 1.421875 -1.5 1.421875 -1.65625 1.46875 -1.84375 L 2.109375 -4.359375 C 2.328125 -5.21875 3.046875 -6.8125 4.25 -6.8125 C 4.828125 -6.8125 5.171875 -6.5 5.171875 -5.90625 Z M 5.171875 -5.90625 "
           style="stroke:none;" />
      </symbol>
    </g>
    <g
       id="g5926">
      <symbol
         id="symbol942"
         overflow="visible">
        <path
           id="path6738"
           d=""
           style="stroke:none;" />
      </symbol>
      <symbol
         id="symbol3371"
         overflow="visible">
        <path
           id="path3847"
           d="M 4.25 -6.046875 C 4.328125 -6.328125 4.359375 -6.390625 4.484375 -6.421875 C 4.578125 -6.4375 4.90625 -6.4375 5.109375 -6.4375 C 6.125 -6.4375 6.5625 -6.40625 6.5625 -5.625 C 6.5625 -5.46875 6.53125 -5.078125 6.484375 -4.828125 C 6.484375 -4.78125 6.453125 -4.671875 6.453125 -4.640625 C 6.453125 -4.578125 6.484375 -4.5 6.578125 -4.5 C 6.6875 -4.5 6.703125 -4.578125 6.734375 -4.734375 L 7 -6.46875 C 7.015625 -6.515625 7.015625 -6.609375 7.015625 -6.640625 C 7.015625 -6.75 6.921875 -6.75 6.75 -6.75 L 1.21875 -6.75 C 0.984375 -6.75 0.96875 -6.734375 0.890625 -6.546875 L 0.296875 -4.796875 C 0.296875 -4.78125 0.234375 -4.640625 0.234375 -4.609375 C 0.234375 -4.5625 0.296875 -4.5 0.359375 -4.5 C 0.453125 -4.5 0.46875 -4.5625 0.53125 -4.71875 C 1.0625 -6.265625 1.328125 -6.4375 2.796875 -6.4375 L 3.1875 -6.4375 C 3.46875 -6.4375 3.46875 -6.40625 3.46875 -6.3125 C 3.46875 -6.265625 3.4375 -6.140625 3.421875 -6.109375 L 2.09375 -0.78125 C 2 -0.421875 1.96875 -0.3125 0.90625 -0.3125 C 0.546875 -0.3125 0.484375 -0.3125 0.484375 -0.125 C 0.484375 0 0.59375 0 0.65625 0 C 0.921875 0 1.203125 -0.015625 1.46875 -0.015625 C 1.75 -0.015625 2.046875 -0.03125 2.328125 -0.03125 C 2.609375 -0.03125 2.875 -0.015625 3.15625 -0.015625 C 3.4375 -0.015625 3.734375 0 4.015625 0 C 4.109375 0 4.234375 0 4.234375 -0.203125 C 4.234375 -0.3125 4.15625 -0.3125 3.890625 -0.3125 C 3.65625 -0.3125 3.515625 -0.3125 3.265625 -0.328125 C 2.96875 -0.359375 2.890625 -0.390625 2.890625 -0.546875 C 2.890625 -0.5625 2.890625 -0.609375 2.9375 -0.75 Z M 4.25 -6.046875 "
           style="stroke:none;" />
      </symbol>
    </g>
  </defs>
  <sodipodi:namedview
     inkscape:window-maximized="1"
     inkscape:window-y="-9"
     inkscape:window-x="-9"
     inkscape:window-height="1001"
     inkscape:window-width="1920"
     units="px"
     showgrid="false"
     inkscape:document-rotation="0"
     inkscape:current-layer="layer1"
     inkscape:document-units="mm"
     inkscape:cy="391.45346"
     inkscape:cx="351.72845"
     inkscape:zoom="0.7"
     inkscape:pageshadow="2"
     inkscape:pageopacity="0.0"
     borderopacity="1.0"
     bordercolor="#666666"
     pagecolor="#ffffff"
     id="base" />
  <metadata
     id="metadata5">
    <rdf:RDF>
      <cc:Work
         rdf:about="">
        <dc:format>image/svg+xml</dc:format>
        <dc:type
           rdf:resource="http://purl.org/dc/dcmitype/StillImage" />
        <dc:title></dc:title>
      </cc:Work>
    </rdf:RDF>
  </metadata>
  <g
     style="opacity:1"
     id="layer1"
     inkscape:groupmode="layer"
     inkscape:label="Layer 1">
    <circle
       r="62.149284"
       cy="104.69941"
       cx="103.1875"
       id="path833"
       style="fill:none;stroke:#000000;stroke-width:0.683314" />
    <path
       transform="scale(0.26458333)"
       d="M 741.13086 137.05859 L 572.77539 226.4668 A 249.10253 249.10253 0 0 1 638.67383 381.11133 L 748.16797 397.18555 L 741.13086 137.05859 z "
       inkscape:transform-center-y="-13.61272"
       inkscape:transform-center-x="-3.0470012e-06"
       style="fill:#80ff80;stroke:#000000;stroke-width:2.77472"
       id="path841" />
    <path
       transform="scale(0.26458333)"
       d="M 545.38672 241.01367 L 358.91602 340.04297 L 608.4375 376.67383 A 219.26658 219.26658 0 0 0 545.38672 241.01367 z "
       inkscape:transform-center-y="-13.61272"
       inkscape:transform-center-x="-3.0470012e-06"
       style="fill:#5f8dd3;stroke:#000000;stroke-width:2.77472"
       id="path845" />
    <path
       d="m 160.71021,73.525972 1.29478,7.580346 0.52131,-0.08941 -1.17273,-6.875554 5.37168,4.448699 0.33773,-0.407079 -5.92191,-4.906018 -0.16944,0.203573 z"
       style="color:#000000;font-style:normal;font-variant:normal;font-weight:normal;font-stretch:normal;font-size:medium;line-height:normal;font-family:sans-serif;font-variant-ligatures:normal;font-variant-position:normal;font-variant-caps:normal;font-variant-numeric:normal;font-variant-alternates:normal;font-variant-east-asian:normal;font-feature-settings:normal;font-variation-settings:normal;text-indent:0;text-align:start;text-decoration:none;text-decoration-line:none;text-decoration-style:solid;text-decoration-color:#000000;letter-spacing:normal;word-spacing:normal;text-transform:none;writing-mode:lr-tb;direction:ltr;text-orientation:mixed;dominant-baseline:auto;baseline-shift:baseline;text-anchor:start;white-space:normal;shape-padding:0;shape-margin:0;inline-size:0;clip-rule:nonzero;display:inline;overflow:visible;visibility:visible;opacity:1;isolation:auto;mix-blend-mode:normal;color-interpolation:sRGB;color-interpolation-filters:linearRGB;solid-color:#000000;solid-opacity:1;vector-effect:none;fill:#000000;fill-opacity:1;fill-rule:nonzero;stroke:none;stroke-width:0.529167;stroke-linecap:butt;stroke-linejoin:miter;stroke-miterlimit:4;stroke-dasharray:none;stroke-dashoffset:0;stroke-opacity:1;color-rendering:auto;image-rendering:auto;shape-rendering:auto;text-rendering:auto;enable-background:accumulate;stop-color:#000000;stop-opacity:1"
       id="path861" />
    <path
       id="path868"
       style="color:#000000;font-style:normal;font-variant:normal;font-weight:normal;font-stretch:normal;font-size:medium;line-height:normal;font-family:sans-serif;font-variant-ligatures:normal;font-variant-position:normal;font-variant-caps:normal;font-variant-numeric:normal;font-variant-alternates:normal;font-variant-east-asian:normal;font-feature-settings:normal;font-variation-settings:normal;text-indent:0;text-align:start;text-decoration:none;text-decoration-line:none;text-decoration-style:solid;text-decoration-color:#000000;letter-spacing:normal;word-spacing:normal;text-transform:none;writing-mode:lr-tb;direction:ltr;text-orientation:mixed;dominant-baseline:auto;baseline-shift:baseline;text-anchor:start;white-space:normal;shape-padding:0;shape-margin:0;inline-size:0;clip-rule:nonzero;display:inline;overflow:visible;visibility:visible;opacity:1;isolation:auto;mix-blend-mode:normal;color-interpolation:sRGB;color-interpolation-filters:linearRGB;solid-color:#000000;solid-opacity:1;vector-effect:none;fill:#000000;fill-opacity:1;fill-rule:nonzero;stroke:none;stroke-width:0.529167;stroke-linecap:butt;stroke-linejoin:miter;stroke-miterlimit:4;stroke-dasharray:none;stroke-dashoffset:0;stroke-opacity:1;color-rendering:auto;image-rendering:auto;shape-rendering:auto;text-rendering:auto;enable-background:accumulate;stop-color:#000000;stop-opacity:1"
       d="m 159.56574,89.779154 -0.0828,-7.689685 -0.52889,0.0061 0.0734,6.974464 -4.60264,-5.240385 -0.39771,0.348704 5.07383,5.778778 0.19943,-0.174295 z" />
    <g
       inkscape:label=""
       transform="translate(35.300569,-0.1300179)"
       id="g911">
      <g
         id="g8688">
        <g
           id="g9729"
           style="fill:#000000;fill-opacity:1">
          <use
             height="100%"
             width="100%"
             id="use7850"
             y="81.962997"
             x="91.925003"
             xlink:href="#symbol5981" />
        </g>
        <g
           id="g1764"
           style="fill:#000000;fill-opacity:1">
          <use
             height="100%"
             width="100%"
             id="use8183"
             y="83.762001"
             x="98.152"
             xlink:href="#symbol4749" />
          <use
             height="100%"
             width="100%"
             id="use3994"
             y="83.762001"
             x="101.26511"
             xlink:href="#symbol6613" />
        </g>
        <g
           id="g4142"
           style="fill:#000000;fill-opacity:1">
          <use
             height="100%"
             width="100%"
             id="use4606"
             y="83.762001"
             x="105.237"
             xlink:href="#symbol8473" />
        </g>
        <g
           id="g6667"
           style="fill:#000000;fill-opacity:1">
          <use
             height="100%"
             width="100%"
             id="use4616"
             y="83.762001"
             x="111.463"
             xlink:href="#symbol7752" />
        </g>
        <g
           id="g4464"
           style="fill:#000000;fill-opacity:1">
          <use
             height="100%"
             width="100%"
             id="use5756"
             y="83.762001"
             x="114.784"
             xlink:href="#symbol8364" />
        </g>
      </g>
    </g>
    <g
       inkscape:label=""
       transform="translate(77.261885,4.1462945)"
       id="g1021">
      <g
         id="g7013">
        <g
           id="g8702"
           style="fill:#000000;fill-opacity:1">
          <use
             height="100%"
             width="100%"
             id="use3387"
             y="81.962997"
             x="91.925003"
             xlink:href="#symbol8025" />
        </g>
        <g
           id="g1542"
           style="fill:#000000;fill-opacity:1">
          <use
             height="100%"
             width="100%"
             id="use975"
             y="83.762001"
             x="98.152"
             xlink:href="#symbol4335" />
          <use
             height="100%"
             width="100%"
             id="use9654"
             y="83.762001"
             x="101.26511"
             xlink:href="#symbol8516" />
          <use
             height="100%"
             width="100%"
             id="use5227"
             y="83.762001"
             x="105.23669"
             xlink:href="#symbol7738" />
        </g>
        <g
           id="g3850"
           style="fill:#000000;fill-opacity:1">
          <use
             height="100%"
             width="100%"
             id="use9772"
             y="83.762001"
             x="111.352"
             xlink:href="#symbol5148" />
        </g>
        <g
           id="g5486"
           style="fill:#000000;fill-opacity:1">
          <use
             height="100%"
             width="100%"
             id="use6776"
             y="83.762001"
             x="114.673"
             xlink:href="#symbol3191" />
        </g>
      </g>
    </g>
    <g
       inkscape:label=""
       transform="translate(75.925537,27.666013)"
       id="g1137">
      <g
         id="g8028">
        <g
           id="g9063"
           style="fill:#000000;fill-opacity:1">
          <use
             height="100%"
             width="100%"
             id="use3507"
             y="81.962997"
             x="91.925003"
             xlink:href="#symbol729" />
        </g>
      </g>
    </g>
    <g
       inkscape:label=""
       transform="translate(52.940358,-26.662354)"
       id="g1240">
      <g
         id="g7568">
        <g
           id="g3497"
           style="fill:#000000;fill-opacity:1">
          <use
             height="100%"
             width="100%"
             id="use5617"
             y="81.962997"
             x="91.925003"
             xlink:href="#symbol6873" />
        </g>
      </g>
    </g>
    <path
       id="path1253"
       style="color:#000000;font-style:normal;font-variant:normal;font-weight:normal;font-stretch:normal;font-size:medium;line-height:normal;font-family:sans-serif;font-variant-ligatures:normal;font-variant-position:normal;font-variant-caps:normal;font-variant-numeric:normal;font-variant-alternates:normal;font-variant-east-asian:normal;font-feature-settings:normal;font-variation-settings:normal;text-indent:0;text-align:start;text-decoration:none;text-decoration-line:none;text-decoration-style:solid;text-decoration-color:#000000;letter-spacing:normal;word-spacing:normal;text-transform:none;writing-mode:lr-tb;direction:ltr;text-orientation:mixed;dominant-baseline:auto;baseline-shift:baseline;text-anchor:start;white-space:normal;shape-padding:0;shape-margin:0;inline-size:0;clip-rule:nonzero;display:inline;overflow:visible;visibility:visible;opacity:1;isolation:auto;mix-blend-mode:normal;color-interpolation:sRGB;color-interpolation-filters:linearRGB;solid-color:#000000;solid-opacity:1;vector-effect:none;fill:#000000;fill-opacity:1;fill-rule:nonzero;stroke:none;stroke-width:0.529167;stroke-linecap:butt;stroke-linejoin:miter;stroke-miterlimit:4;stroke-dasharray:none;stroke-dashoffset:0;stroke-opacity:1;color-rendering:auto;image-rendering:auto;shape-rendering:auto;text-rendering:auto;enable-background:accumulate;stop-color:#000000;stop-opacity:1"
       d="m 159.02412,131.76095 -5.76992,5.08398 0.34994,0.39661 5.23432,-4.60987 -0.96345,6.90781 0.5238,0.0735 1.06354,-7.61625 -0.26223,-0.0372 z" />
    <path
       d="m 96.596982,43.189966 7.367678,2.203563 0.15122,-0.506844 -6.68192,-2.000167 6.37041,-2.839631 -0.21494,-0.4833 -7.024399,3.129762 0.10723,0.242193 z"
       style="color:#000000;font-style:normal;font-variant:normal;font-weight:normal;font-stretch:normal;font-size:medium;line-height:normal;font-family:sans-serif;font-variant-ligatures:normal;font-variant-position:normal;font-variant-caps:normal;font-variant-numeric:normal;font-variant-alternates:normal;font-variant-east-asian:normal;font-feature-settings:normal;font-variation-settings:normal;text-indent:0;text-align:start;text-decoration:none;text-decoration-line:none;text-decoration-style:solid;text-decoration-color:#000000;letter-spacing:normal;word-spacing:normal;text-transform:none;writing-mode:lr-tb;direction:ltr;text-orientation:mixed;dominant-baseline:auto;baseline-shift:baseline;text-anchor:start;white-space:normal;shape-padding:0;shape-margin:0;inline-size:0;clip-rule:nonzero;display:inline;overflow:visible;visibility:visible;opacity:1;isolation:auto;mix-blend-mode:normal;color-interpolation:sRGB;color-interpolation-filters:linearRGB;solid-color:#000000;solid-opacity:1;vector-effect:none;fill:#000000;fill-opacity:1;fill-rule:nonzero;stroke:none;stroke-width:0.529167;stroke-linecap:butt;stroke-linejoin:miter;stroke-miterlimit:4;stroke-dasharray:none;stroke-dashoffset:0;stroke-opacity:1;color-rendering:auto;image-rendering:auto;shape-rendering:auto;text-rendering:auto;enable-background:accumulate;stop-color:#000000;stop-opacity:1"
       id="path1255" />
    <g
       inkscape:label=""
       transform="translate(93.439476,-50.264143)"
       id="g1358">
      <g
         id="g7625">
        <g
           id="g4481"
           style="fill:#000000;fill-opacity:1">
          <use
             height="100%"
             width="100%"
             id="use7265"
             y="81.962997"
             x="91.925003"
             xlink:href="#symbol3371" />
        </g>
      </g>
    </g>
  </g>
</svg>
